<?xml version="1.0" encoding="UTF-8" standalone="no"?>
<!-- Created with Inkscape (http://www.inkscape.org/) -->

<svg
   width="210mm"
   height="297mm"
   viewBox="0 0 210 297"
   version="1.1"
   id="svg1"
   inkscape:version="1.4 (86a8ad7, 2024-10-11)"
   sodipodi:docname="drawing.svg"
   xmlns:inkscape="http://www.inkscape.org/namespaces/inkscape"
   xmlns:sodipodi="http://sodipodi.sourceforge.net/DTD/sodipodi-0.dtd"
   xmlns="http://www.w3.org/2000/svg"
   xmlns:svg="http://www.w3.org/2000/svg">
  <sodipodi:namedview
     id="namedview1"
     pagecolor="#ffffff"
     bordercolor="#000000"
     borderopacity="0.25"
     inkscape:showpageshadow="2"
     inkscape:pageopacity="0.0"
     inkscape:pagecheckerboard="0"
     inkscape:deskcolor="#d1d1d1"
     inkscape:document-units="mm"
     inkscape:zoom="2.1442755"
     inkscape:cx="504.83251"
     inkscape:cy="466.1248"
     inkscape:window-width="1920"
     inkscape:window-height="1111"
     inkscape:window-x="-9"
     inkscape:window-y="-9"
     inkscape:window-maximized="1"
     inkscape:current-layer="layer1" />
  <defs
     id="defs1" />
  <g
     inkscape:label="Layer 1"
     inkscape:groupmode="layer"
     id="layer1">
    <path
       style="opacity:0.7;fill:#0000c2;stroke:#000000;stroke-width:0.865;stroke-miterlimit:3.4;stroke-dasharray:none"
       d="M 81.516558,151.01552 H 97.458576"
       id="path1" />
    <path
       style="opacity:0.7;fill:#0000c2;stroke:#000000;stroke-width:0.865406;stroke-miterlimit:3.4;stroke-dasharray:none"
       d="M 81.516558,145.78615 H 94.392779"
       id="path2" />
    <path
       style="opacity:0.7;fill:#0000c2;stroke:#000000;stroke-width:1.01162;stroke-miterlimit:3.4;stroke-dasharray:none"
       id="path10"
       sodipodi:type="arc"
       sodipodi:cx="78.327354"
       sodipodi:cy="146.24292"
       sodipodi:rx="1.3003315"
       sodipodi:ry="1.300685"
       sodipodi:start="3.1518735"
       sodipodi:end="3.1516731"
       sodipodi:open="true"
       sodipodi:arc-type="arc"
       d="m 77.027092,146.22955 a 1.3003315,1.300685 0 0 1 1.313566,-1.28725 1.3003315,1.300685 0 0 1 1.286961,1.31386 1.3003315,1.300685 0 0 1 -1.313437,1.28738 1.3003315,1.300685 0 0 1 -1.287093,-1.31373" />
    <path
       style="opacity:0.7;fill:#0000c2;stroke:#000000;stroke-width:1.01162;stroke-miterlimit:3.4;stroke-dasharray:none"
       id="path11"
       sodipodi:type="arc"
       sodipodi:cx="78.327354"
       sodipodi:cy="150.80988"
       sodipodi:rx="1.3003315"
       sodipodi:ry="1.300685"
       sodipodi:start="3.1518735"
       sodipodi:end="3.1516731"
       sodipodi:open="true"
       sodipodi:arc-type="arc"
       d="m 77.027092,150.7965 a 1.3003315,1.300685 0 0 1 1.313566,-1.28724 1.3003315,1.300685 0 0 1 1.286961,1.31386 1.3003315,1.300685 0 0 1 -1.313437,1.28737 1.3003315,1.300685 0 0 1 -1.287093,-1.31373" />
    <path
       style="opacity:0.7;fill:#0000c2;stroke:#000000;stroke-width:1.01162;stroke-miterlimit:3.4;stroke-dasharray:none"
       id="path12"
       sodipodi:type="arc"
       sodipodi:cx="78.327354"
       sodipodi:cy="155.37683"
       sodipodi:rx="1.3003315"
       sodipodi:ry="1.300685"
       sodipodi:start="3.1518735"
       sodipodi:end="3.1516731"
       sodipodi:open="true"
       sodipodi:arc-type="arc"
       d="m 77.027092,155.36346 a 1.3003315,1.300685 0 0 1 1.313566,-1.28725 1.3003315,1.300685 0 0 1 1.286961,1.31386 1.3003315,1.300685 0 0 1 -1.313437,1.28738 1.3003315,1.300685 0 0 1 -1.287093,-1.31373" />
    <path
       d="m 72.47161,150.88414 q 1.132978,0.80518 1.540852,1.52562 0.521168,0.9535 0.521168,2.26725 v 7.6069 q 0,1.20778 0.747757,1.97059 0.747773,0.784 1.858083,0.88995 0.702436,0.0636 0.929042,0.25426 0.294563,0.25426 0.294563,0.63568 0,0.40258 -0.294563,0.63567 -0.294579,0.25427 -0.861068,0.25427 -1.790094,0 -2.991046,-1.05945 -1.608825,-1.46205 -1.608825,-3.55979 v -7.62808 q 0,-1.16541 -0.747758,-1.94943 -0.747773,-0.80518 -1.903404,-0.88993 -0.634462,-0.0636 -0.88372,-0.29665 -0.249258,-0.23309 -0.249258,-0.65686 0,-0.40261 0.249258,-0.63568 0.249258,-0.23309 0.88372,-0.29664 1.1783,-0.0847 1.903404,-0.86877 0.747758,-0.80518 0.747758,-1.97058 v -7.62811 q 0,-1.99178 1.359567,-3.30552 1.359568,-1.33491 3.262972,-1.33491 0.543821,0 0.8384,0.25427 0.294563,0.25427 0.294563,0.63566 0,0.38142 -0.294563,0.6357 -0.203937,0.21187 -0.929042,0.27545 -1.132978,0.10601 -1.880736,0.88996 -0.725104,0.78398 -0.725104,1.94939 v 7.62811 q 0,1.33491 -0.453195,2.16128 -0.453178,0.80521 -1.608825,1.61039 z"
       id="path17"
       style="font-size:37.3861px;font-family:Monospace;-inkscape-font-specification:'Monospace, Normal';font-variant-position:sub;opacity:0.7;fill:#0000c2;stroke-width:0.0538552;stroke-miterlimit:3.4"
       aria-label="{" />
    <path
       d="m 103.28995,150.88414 q -1.13299,0.80518 -1.54086,1.52562 -0.52117,0.9535 -0.52117,2.26725 v 7.6069 q 0,1.20778 -0.74777,1.97059 -0.747767,0.784 -1.858089,0.88995 -0.70244,0.0636 -0.92905,0.25426 -0.29456,0.25426 -0.29456,0.63568 0,0.40258 0.29456,0.63567 0.29459,0.25427 0.86108,0.25427 1.790099,0 2.991059,-1.05945 1.60883,-1.46205 1.60883,-3.55979 v -7.62808 q 0,-1.16541 0.74777,-1.94943 0.74777,-0.80518 1.9034,-0.88993 0.63446,-0.0636 0.88372,-0.29665 0.24926,-0.23309 0.24926,-0.65686 0,-0.40261 -0.24926,-0.63568 -0.24926,-0.23309 -0.88372,-0.29664 -1.1783,-0.0847 -1.9034,-0.86877 -0.74777,-0.80518 -0.74777,-1.97058 v -7.62811 q 0,-1.99178 -1.35957,-3.30552 -1.35958,-1.33491 -3.262989,-1.33491 -0.54382,0 -0.83841,0.25427 -0.29456,0.25427 -0.29456,0.63566 0,0.38142 0.29456,0.6357 0.20394,0.21187 0.92905,0.27545 1.132992,0.10601 1.880749,0.88996 0.72511,0.78398 0.72511,1.94939 v 7.62811 q 0,1.33491 0.45319,2.16128 0.45318,0.80521 1.60884,1.61039 z"
       id="path13"
       style="font-size:37.3861px;font-family:Monospace;-inkscape-font-specification:'Monospace, Normal';font-variant-position:sub;opacity:0.7;fill:#0000c2;stroke-width:0.0538552;stroke-miterlimit:3.4"
       aria-label="{" />
    <path
       style="opacity:0.7;fill:#0000c2;stroke:#000000;stroke-width:0.865406;stroke-miterlimit:3.4;stroke-dasharray:none"
       d="M 81.516558,155.31121 H 94.392779"
       id="path14" />
    <path
       style="opacity:0.7;fill:#0000c2;stroke:#000000;stroke-width:0.865;stroke-miterlimit:3.4;stroke-dasharray:none"
       d="M 81.342057,110.53138 H 97.284075"
       id="path15" />
    <path
       style="opacity:0.7;fill:#0000c2;stroke:#000000;stroke-width:0.865406;stroke-miterlimit:3.4;stroke-dasharray:none"
       d="M 81.342057,105.30201 H 94.218278"
       id="path16" />
    <path
       style="opacity:0.7;fill:none;stroke:#000000;stroke-width:1.01162;stroke-miterlimit:3.4;stroke-dasharray:none"
       id="path18"
       sodipodi:type="arc"
       sodipodi:cx="78.152855"
       sodipodi:cy="105.75878"
       sodipodi:rx="1.3003315"
       sodipodi:ry="1.300685"
       sodipodi:start="3.1518735"
       sodipodi:end="3.1516731"
       sodipodi:open="true"
       sodipodi:arc-type="arc"
       d="m 76.852592,105.74541 a 1.3003315,1.300685 0 0 1 1.313566,-1.28725 1.3003315,1.300685 0 0 1 1.286961,1.31386 1.3003315,1.300685 0 0 1 -1.313437,1.28738 1.3003315,1.300685 0 0 1 -1.287092,-1.31373" />
    <path
       style="opacity:0.7;fill:none;stroke:#000000;stroke-width:1.01162;stroke-miterlimit:3.4;stroke-dasharray:none"
       id="path19"
       sodipodi:type="arc"
       sodipodi:cx="78.152855"
       sodipodi:cy="110.32574"
       sodipodi:rx="1.3003315"
       sodipodi:ry="1.300685"
       sodipodi:start="3.1518735"
       sodipodi:end="3.1516731"
       sodipodi:open="true"
       sodipodi:arc-type="arc"
       d="m 76.852592,110.31237 a 1.3003315,1.300685 0 0 1 1.313566,-1.28725 1.3003315,1.300685 0 0 1 1.286961,1.31386 1.3003315,1.300685 0 0 1 -1.313437,1.28738 1.3003315,1.300685 0 0 1 -1.287092,-1.31373" />
    <path
       style="opacity:0.7;fill:none;stroke:#000000;stroke-width:1.01162;stroke-miterlimit:3.4;stroke-dasharray:none"
       id="path20"
       sodipodi:type="arc"
       sodipodi:cx="78.152855"
       sodipodi:cy="114.89269"
       sodipodi:rx="1.3003315"
       sodipodi:ry="1.300685"
       sodipodi:start="3.1518735"
       sodipodi:end="3.1516731"
       sodipodi:open="true"
       sodipodi:arc-type="arc"
       d="m 76.852592,114.87932 a 1.3003315,1.300685 0 0 1 1.313566,-1.28724 1.3003315,1.300685 0 0 1 1.286961,1.31385 1.3003315,1.300685 0 0 1 -1.313437,1.28738 1.3003315,1.300685 0 0 1 -1.287092,-1.31373" />
    <path
       d="m 72.297109,110.4 q 1.132978,0.80518 1.540852,1.52562 0.521168,0.9535 0.521168,2.26725 v 7.6069 q 0,1.20778 0.747757,1.97059 0.747773,0.784 1.858083,0.88995 0.702436,0.0636 0.929042,0.25426 0.294563,0.25426 0.294563,0.63568 0,0.40258 -0.294563,0.63567 -0.294579,0.25427 -0.861068,0.25427 -1.790094,0 -2.991046,-1.05945 -1.608825,-1.46205 -1.608825,-3.55979 v -7.62808 q 0,-1.16541 -0.747758,-1.94943 -0.747773,-0.80518 -1.903404,-0.88993 -0.634462,-0.0636 -0.88372,-0.29665 -0.249258,-0.23309 -0.249258,-0.65686 0,-0.40261 0.249258,-0.63568 0.249258,-0.23309 0.88372,-0.29664 1.1783,-0.0847 1.903404,-0.86877 0.747758,-0.80518 0.747758,-1.97058 v -7.628106 q 0,-1.99178 1.359567,-3.30552 1.359568,-1.33491 3.262972,-1.33491 0.543821,0 0.8384,0.25427 0.294563,0.25427 0.294563,0.63566 0,0.38142 -0.294563,0.6357 -0.203937,0.21187 -0.929042,0.27545 -1.132978,0.10601 -1.880736,0.88996 -0.725104,0.78398 -0.725104,1.94939 v 7.628106 q 0,1.33491 -0.453195,2.16128 -0.453178,0.80521 -1.608825,1.61039 z"
       id="path21"
       style="font-size:37.3861px;font-family:Monospace;-inkscape-font-specification:'Monospace, Normal';font-variant-position:sub;opacity:0.7;fill:#0000c2;stroke-width:0.0538552;stroke-miterlimit:3.4"
       aria-label="{" />
    <path
       style="opacity:0.7;fill:#0000c2;stroke:#000000;stroke-width:0.865406;stroke-miterlimit:3.4;stroke-dasharray:none"
       d="M 81.342057,114.82707 H 94.218278"
       id="path23" />
    <path
       style="opacity:0.7;fill:none;stroke:#000000;stroke-width:0.201921;stroke-miterlimit:3.4;stroke-dasharray:none"
       d="m 135.07376,117.64811 2.43671,-3.19035 -5.05518,0.0853 z"
       id="path29"
       sodipodi:nodetypes="cccc" />
  </g>
</svg>
