<?xml version="1.0" encoding="UTF-8" standalone="no"?>
<!-- Created with Inkscape (http://www.inkscape.org/) -->

<svg
   width="40.899284mm"
   height="28.722118mm"
   viewBox="0 0 40.899285 28.722118"
   version="1.1"
   id="svg1"
   sodipodi:docname="MelleWeb_pfad.svg"
   inkscape:version="1.4 (86a8ad7, 2024-10-11)"
   xmlns:inkscape="http://www.inkscape.org/namespaces/inkscape"
   xmlns:sodipodi="http://sodipodi.sourceforge.net/DTD/sodipodi-0.dtd"
   xmlns="http://www.w3.org/2000/svg"
   xmlns:svg="http://www.w3.org/2000/svg">
  <sodipodi:namedview
     id="namedview1"
     pagecolor="#ffffff"
     bordercolor="#000000"
     borderopacity="0.25"
     inkscape:showpageshadow="2"
     inkscape:pageopacity="0.0"
     inkscape:pagecheckerboard="0"
     inkscape:deskcolor="#d1d1d1"
     inkscape:document-units="mm"
     inkscape:zoom="3.9196346"
     inkscape:cx="87.890846"
     inkscape:cy="79.72682"
     inkscape:window-width="1920"
     inkscape:window-height="1111"
     inkscape:window-x="-9"
     inkscape:window-y="-9"
     inkscape:window-maximized="1"
     inkscape:current-layer="layer1" />
  <defs
     id="defs1" />
  <g
     id="layer1"
     transform="translate(-54.289306,-104.87283)">
    <path
       d="m 62.233893,129.25098 h -0.782484 l -2.632734,-5.9909 h -0.130414 v 8.16718 h 1.263386 q 0.244527,0 0.350488,0.0978 0.105961,0.0897 0.105961,0.24452 0,0.14672 -0.105961,0.24453 -0.105961,0.0978 -0.350488,0.0978 h -2.526772 q -0.244527,0 -0.350488,-0.0978 -0.105962,-0.0978 -0.105962,-0.24453 0,-0.15487 0.105962,-0.24452 0.105961,-0.0978 0.350488,-0.0978 h 0.578712 v -8.16718 H 57.57159 q -0.244526,0 -0.350487,-0.0897 -0.105962,-0.0978 -0.105962,-0.25267 0,-0.15487 0.105962,-0.24453 0.105961,-0.0978 0.350487,-0.0978 h 1.679082 l 2.591979,5.90124 2.551225,-5.90124 h 1.679082 q 0.252677,0 0.358638,0.0978 0.105962,0.0897 0.105962,0.24453 0,0.15486 -0.105962,0.25267 -0.105961,0.0897 -0.358638,0.0897 h -0.423846 v 8.16718 h 0.570561 q 0.252678,0 0.358639,0.0978 0.105961,0.0897 0.105961,0.24452 0,0.14672 -0.105961,0.24453 -0.105961,0.0978 -0.358639,0.0978 h -2.518621 q -0.244527,0 -0.358639,-0.0978 -0.105961,-0.0978 -0.105961,-0.24453 0,-0.15487 0.105961,-0.24452 0.105961,-0.0978 0.358639,-0.0978 h 1.263386 v -8.16718 h -0.146716 z"
       id="text1"
       style="font-size:16.693px;font-family:Monospace;-inkscape-font-specification:'Monospace, Normal';font-variant-position:sub;opacity:0.777589;fill:#be4750;stroke-width:0.748579;stroke-miterlimit:3.4"
       transform="scale(1.1137214,0.89789063)"
       aria-label="M" />
    <path
       d="M 65.731513,141.58923 H 64.61668 l -2.010078,-7.01838 -1.967849,7.01838 h -1.114832 l -1.047268,-9.17203 h -0.261816 q -0.253372,0 -0.363166,-0.0929 -0.109794,-0.10135 -0.109794,-0.26182 0,-0.16047 0.109794,-0.25337 0.109794,-0.10135 0.363166,-0.10135 h 2.635059 q 0.261817,0 0.371611,0.10135 0.109794,0.0929 0.109794,0.25337 0,0.16047 -0.109794,0.26182 -0.109794,0.0929 -0.371611,0.0929 h -1.655358 l 0.937473,8.36125 1.917175,-6.88325 h 1.089496 l 1.967849,6.88325 0.920581,-8.36125 h -1.663803 q -0.253371,0 -0.363166,-0.0929 -0.109794,-0.10135 -0.109794,-0.26182 0,-0.16047 0.109794,-0.25337 0.109795,-0.10135 0.363166,-0.10135 h 2.618168 q 0.261817,0 0.371611,0.10135 0.109794,0.0929 0.109794,0.25337 0,0.16047 -0.109794,0.26182 -0.109794,0.0929 -0.371611,0.0929 H 66.71966 Z"
       id="text2"
       style="font-size:17.2968px;font-family:Monospace;-inkscape-font-specification:'Monospace, Normal';font-variant-position:sub;opacity:0.777589;fill:#0000c2;stroke-width:0.775664;stroke-miterlimit:3.4"
       transform="scale(1.0993469,0.90963099)"
       aria-label="W" />
    <path
       d="m -95.081977,115.66139 q 0.912747,0.69369 1.241335,1.31436 0.419864,0.82147 0.419864,1.95328 v 6.55352 q 0,1.04053 0.602413,1.69771 0.602412,0.67543 1.496904,0.7667 0.565903,0.0548 0.748452,0.21906 0.237314,0.21906 0.237314,0.54765 0,0.34684 -0.237314,0.54765 -0.237314,0.21906 -0.693687,0.21906 -1.44214,0 -2.409651,-0.91275 -1.2961,-1.25959 -1.2961,-3.06683 v -6.57177 q 0,-1.00402 -0.602413,-1.67946 -0.602413,-0.69368 -1.533414,-0.7667 -0.511139,-0.0548 -0.711943,-0.25557 -0.200804,-0.20081 -0.200804,-0.56591 0,-0.34684 0.200804,-0.54764 0.200804,-0.20081 0.711943,-0.25557 0.949256,-0.073 1.533414,-0.74846 0.602413,-0.69368 0.602413,-1.6977 v -6.57178 q 0,-1.71596 1.095296,-2.84777 1.095295,-1.15006 2.62871,-1.15006 0.438118,0 0.675432,0.21906 0.237314,0.21906 0.237314,0.54765 0,0.32859 -0.237314,0.54765 -0.164294,0.18254 -0.748452,0.23731 -0.912747,0.0913 -1.515159,0.76671 -0.584158,0.67543 -0.584158,1.67945 v 6.57178 q 0,1.15006 -0.365099,1.862 -0.365098,0.69369 -1.2961,1.38737 z"
       id="text4"
       style="font-size:37.3861px;font-family:Monospace;-inkscape-font-specification:'Monospace, Normal';font-variant-position:sub;opacity:0.777589;fill:#0000c2;stroke-width:0.044867;stroke-miterlimit:3.4"
       transform="scale(-0.97110387,1.029756)"
       aria-label="{" />
    <path
       d="m 86.687563,103.87547 q -0.419047,0 -0.734943,-0.16762 -0.30945,-0.16762 -0.483516,-0.47062 -0.167618,-0.30945 -0.167618,-0.71561 v -0.96703 q 0,-0.4126 0.167618,-0.7156 0.174066,-0.303 0.483516,-0.47062 0.315896,-0.16762 0.734943,-0.16762 0.419046,0 0.728496,0.16762 0.315897,0.16762 0.483515,0.47062 0.174066,0.303 0.174066,0.7156 v 0.62535 h -2.20483 v 0.34168 q 0,0.41905 0.212747,0.64469 0.212747,0.21919 0.606006,0.21919 0.335237,0 0.541537,-0.11604 0.2063,-0.12249 0.251428,-0.36102 h 0.580218 q -0.05802,0.44483 -0.438387,0.70915 -0.373918,0.25788 -0.934796,0.25788 z m 0.818752,-2.08234 v -0.23854 q 0,-0.41904 -0.212746,-0.64468 -0.2063,-0.22564 -0.606006,-0.22564 -0.393259,0 -0.606006,0.22564 -0.212747,0.22564 -0.212747,0.64468 v 0.18696 h 1.682633 z m 3.532888,2.01787 q -0.30945,0 -0.541537,-0.12249 -0.232088,-0.12249 -0.361025,-0.34813 -0.128938,-0.22564 -0.128938,-0.52865 v -3.178305 h -1.192671 v -0.528643 h 1.77289 v 3.706948 q 0,0.2192 0.12249,0.34813 0.122491,0.12249 0.328791,0.12249 h 1.128202 v 0.52865 z m 3.868124,0 q -0.30945,0 -0.541537,-0.12249 -0.232087,-0.12249 -0.361025,-0.34813 -0.128937,-0.22564 -0.128937,-0.52865 v -3.178305 h -1.192671 v -0.528643 h 1.772889 v 3.706948 q 0,0.2192 0.122491,0.34813 0.12249,0.12249 0.32879,0.12249 h 1.128202 v 0.52865 z m 3.38461,0.0645 q -0.419047,0 -0.734943,-0.16762 -0.30945,-0.16762 -0.483516,-0.47062 -0.167618,-0.30945 -0.167618,-0.71561 v -0.96703 q 0,-0.4126 0.167618,-0.7156 0.174066,-0.303 0.483516,-0.47062 0.315896,-0.16762 0.734943,-0.16762 0.419046,0 0.728496,0.16762 0.315897,0.16762 0.483515,0.47062 0.174066,0.303 0.174066,0.7156 v 0.62535 h -2.20483 v 0.34168 q 0,0.41905 0.212747,0.64469 0.212747,0.21919 0.606006,0.21919 0.335237,0 0.541537,-0.11604 0.2063,-0.12249 0.251428,-0.36102 h 0.580218 q -0.05802,0.44483 -0.438387,0.70915 -0.373919,0.25788 -0.934796,0.25788 z m 0.818752,-2.08234 v -0.23854 q 0,-0.41904 -0.212746,-0.64468 -0.2063,-0.22564 -0.606006,-0.22564 -0.393259,0 -0.606006,0.22564 -0.212747,0.22564 -0.212747,0.64468 v 0.18696 h 1.682633 z"
       id="text5"
       style="font-size:6.44687px;font-family:'JetBrains Mono';-inkscape-font-specification:'JetBrains Mono, Normal';font-variant-position:sub;opacity:0.777589;fill:#0000c2;stroke-width:0.289103;stroke-miterlimit:3.4"
       transform="scale(0.87758421,1.1394918)"
       aria-label="elle" />
    <path
       d="m 86.676721,113.10719 q -0.419046,0 -0.734943,-0.16762 -0.309449,-0.16762 -0.483515,-0.47062 -0.167619,-0.30945 -0.167619,-0.71561 v -0.96703 q 0,-0.4126 0.167619,-0.7156 0.174066,-0.303 0.483515,-0.47062 0.315897,-0.16762 0.734943,-0.16762 0.419047,0 0.728497,0.16762 0.315896,0.16762 0.483515,0.47062 0.174065,0.303 0.174065,0.7156 v 0.62535 h -2.204829 v 0.34168 q 0,0.41905 0.212747,0.64469 0.212746,0.21919 0.606005,0.21919 0.335238,0 0.541538,-0.11604 0.206299,-0.12249 0.251427,-0.36102 h 0.580219 q -0.05802,0.44483 -0.438387,0.70915 -0.373919,0.25788 -0.934797,0.25788 z m 0.818753,-2.08234 v -0.23854 q 0,-0.41904 -0.212747,-0.64468 -0.2063,-0.22564 -0.606006,-0.22564 -0.393259,0 -0.606005,0.22564 -0.212747,0.22564 -0.212747,0.64468 v 0.18696 h 1.682633 z m 3.255672,2.08234 q -0.438387,0 -0.702709,-0.23209 -0.264322,-0.23854 -0.264322,-0.64469 l 0.116044,0.13539 h -0.116044 v 0.67692 h -0.580218 v -4.70622 h 0.580218 v 1.0315 l -0.01289,0.80586 h 0.128937 l -0.116044,0.13538 q 0,-0.3997 0.264322,-0.63824 0.270769,-0.23853 0.702709,-0.23853 0.53509,0 0.857433,0.35458 0.322344,0.35458 0.322344,0.96703 v 1.03794 q 0,0.60601 -0.322344,0.96059 -0.322343,0.35458 -0.857433,0.35458 z m -0.193406,-0.50286 q 0.367471,0 0.580218,-0.21919 0.212747,-0.2192 0.212747,-0.6318 v -0.96703 q 0,-0.4126 -0.212747,-0.63179 -0.212747,-0.21919 -0.580218,-0.21919 -0.354578,0 -0.567325,0.22564 -0.2063,0.22564 -0.2063,0.62534 v 0.96703 q 0,0.39971 0.2063,0.62535 0.212747,0.22564 0.567325,0.22564 z"
       id="text6"
       style="font-size:6.44687px;font-family:'JetBrains Mono';-inkscape-font-specification:'JetBrains Mono, Normal';font-variant-position:sub;opacity:0.777589;fill:#0000c2;stroke-width:0.289103;stroke-miterlimit:3.4"
       transform="scale(0.87758421,1.1394918)"
       aria-label="eb" />
    <path
       d="m 58.945146,115.66139 q 0.912746,0.69369 1.241335,1.31436 0.419863,0.82147 0.419863,1.95328 v 6.55352 q 0,1.04053 0.602413,1.69771 0.602413,0.67543 1.496905,0.7667 0.565902,0.0548 0.748452,0.21906 0.237314,0.21906 0.237314,0.54765 0,0.34684 -0.237314,0.54765 -0.237314,0.21906 -0.693688,0.21906 -1.442139,0 -2.409651,-0.91275 -1.2961,-1.25959 -1.2961,-3.06683 v -6.57177 q 0,-1.00402 -0.602413,-1.67946 -0.602412,-0.69368 -1.533414,-0.7667 -0.511138,-0.0548 -0.711942,-0.25557 -0.200805,-0.20081 -0.200805,-0.56591 0,-0.34684 0.200805,-0.54764 0.200804,-0.20081 0.711942,-0.25557 0.949257,-0.073 1.533414,-0.74846 0.602413,-0.69368 0.602413,-1.6977 v -6.57178 q 0,-1.71596 1.095296,-2.84777 1.095296,-1.15006 2.62871,-1.15006 0.438119,0 0.675433,0.21906 0.237314,0.21906 0.237314,0.54765 0,0.32859 -0.237314,0.54765 -0.164295,0.18254 -0.748452,0.23731 -0.912747,0.0913 -1.51516,0.76671 -0.584158,0.67543 -0.584158,1.67945 v 6.57178 q 0,1.15006 -0.365098,1.862 -0.365099,0.69369 -1.2961,1.38737 z"
       id="text7"
       style="font-size:37.3861px;font-family:Monospace;-inkscape-font-specification:'Monospace, Normal';font-variant-position:sub;opacity:0.777589;fill:#0000c2;stroke-width:0.044867;stroke-miterlimit:3.4"
       transform="scale(0.97110384,1.029756)"
       aria-label="{" />
    <path
       d="m 84.09815,122.97503 h 0.167557 q 0.253599,0 0.430213,0.18114 0.181142,0.18115 0.181142,0.43022 0,0.26718 -0.181142,0.44379 -0.181143,0.17662 -0.430213,0.17662 H 84.09815 q -0.253599,0 -0.434741,-0.18114 -0.176614,-0.18115 -0.176614,-0.43022 0,-0.26718 0.181143,-0.4438 0.18567,-0.17661 0.430212,-0.17661 z m -0.661169,2.55411 h 1.195539 l -1.281581,2.10124 q -0.0951,0.15398 -0.153971,0.19473 -0.05434,0.0408 -0.131328,0.0408 -0.108685,0 -0.181142,-0.0679 -0.07246,-0.0679 -0.07246,-0.16303 0,-0.0543 0.02717,-0.14038 z"
       id="text3"
       style="font-size:9.27448px;font-family:Monospace;-inkscape-font-specification:'Monospace, Normal';font-variant-position:sub;opacity:0.777589;fill:#be4750;stroke-width:0.415904;stroke-miterlimit:3.4"
       aria-label=";"
       transform="scale(0.99053427,1.0095562)" />
  </g>
</svg>
