<?xml version="1.0" encoding="UTF-8" standalone="no"?>
<!-- Created with Inkscape (http://www.inkscape.org/) -->

<svg
   width="12.14744mm"
   height="12.927995mm"
   viewBox="350 20 38.871808 41.369583"
   version="1.1"
   id="svg1"
   xml:space="preserve"
   inkscape:version="1.4 (86a8ad7, 2024-10-11)"
   sodipodi:docname="reverseArrows.svg"
   xmlns:inkscape="http://www.inkscape.org/namespaces/inkscape"
   xmlns:sodipodi="http://sodipodi.sourceforge.net/DTD/sodipodi-0.dtd"
   xmlns="http://www.w3.org/2000/svg"
   xmlns:svg="http://www.w3.org/2000/svg"><sodipodi:namedview
     id="namedview1"
     pagecolor="#ffffff"
     bordercolor="#000000"
     borderopacity="0.25"
     inkscape:showpageshadow="2"
     inkscape:pageopacity="0.0"
     inkscape:pagecheckerboard="0"
     inkscape:deskcolor="#d1d1d1"
     inkscape:document-units="mm"
     inkscape:zoom="8.5771024"
     inkscape:cx="69.254158"
     inkscape:cy="32.703352"
     inkscape:window-width="1920"
     inkscape:window-height="1111"
     inkscape:window-x="-9"
     inkscape:window-y="-9"
     inkscape:window-maximized="1"
     inkscape:current-layer="g7" /><defs
     id="defs1" /><g
     inkscape:label="Layer 1"
     inkscape:groupmode="layer"
     id="layer1"
     transform="translate(-59.1799,-53.028298)"><g
       id="g5"
       transform="translate(-174.50059,-21.987074)"><g
         id="g6"
         transform="matrix(0.64910033,0,0,0.63573898,63.463292,83.075328)"><g
           id="g7"
           transform="matrix(1.1011546,0,0,1.1316934,-141.58779,6.9964599)"><g
             id="g8"
             transform="matrix(0.49278819,0,0,0.46573423,692.3265,26.547143)"
             style="stroke:none;opacity:0.57295374"><path
               style="fill:#0000ff;stroke:none;stroke-width:7.84262;stroke-miterlimit:3.4;stroke-dasharray:none;stroke-opacity:1"
               d="M 439.30477,25.757269 C 426.6106,-7.7490176 397.65115,-16.862193 366.6674,-0.9533375 l 6.37469,5.104741 c 0,0 -29.88966,6.8576255 -32.14961,7.3496055 -2.25994,0.491979 -0.35941,-33.066506 -0.32079,-34.736144 0.0386,-1.669638 9.97126,6.821907 10.45452,7.531932 0.9721,1.428254 71.40018,-54.114567 87.85012,39.762508 0.19128,1.091645 0.55796,2.6277 0.42844,1.697964 z"
               id="path6-6"
               sodipodi:nodetypes="cccssssc" /><path
               style="fill:#0000ff;stroke:none;stroke-width:7.84262;stroke-miterlimit:3.4;stroke-dasharray:none;stroke-opacity:1"
               d="m 336.96351,28.422754 c 12.69418,33.506287 41.65363,42.619463 72.63738,26.710606 l -6.37469,-5.10474 c 0,0 29.88966,-6.857626 32.14961,-7.349606 2.25994,-0.491979 0.35941,33.066507 0.32079,34.736145 -0.0386,1.669638 -9.97126,-6.821907 -10.45452,-7.531932 -0.9721,-1.428254 -71.40018,54.114563 -87.85012,-39.762509 -0.19128,-1.091645 -0.55796,-2.6277 -0.42845,-1.697964 z"
               id="path6-6-2"
               sodipodi:nodetypes="cccssssc" /></g><text
             xml:space="preserve"
             style="font-style:normal;font-variant:normal;font-weight:normal;font-stretch:normal;font-size:9.7547px;font-family:'JetBrains Mono';-inkscape-font-specification:'JetBrains Mono, Normal';font-variant-ligatures:normal;font-variant-position:sub;font-variant-caps:normal;font-variant-numeric:normal;font-variant-east-asian:normal;text-align:start;writing-mode:lr-tb;direction:ltr;text-anchor:start;opacity:0.7;fill:#000000;fill-opacity:1;stroke:none;stroke-width:0.505471;stroke-miterlimit:3.4"
             x="932.13452"
             y="40.262527"
             id="text1"
             transform="scale(0.93058418,1.0745938)"><tspan
               sodipodi:role="line"
               id="tspan1"
               style="font-style:normal;font-variant:normal;font-weight:normal;font-stretch:normal;font-size:9.7547px;font-family:'JetBrains Mono';-inkscape-font-specification:'JetBrains Mono, Normal';font-variant-ligatures:normal;font-variant-caps:normal;font-variant-numeric:normal;font-variant-east-asian:normal;fill:#000000;fill-opacity:1;stroke-width:0.505471"
               x="932.13452"
               y="40.262527">UPDATE</tspan></text></g></g></g></g></svg>
