<?xml version="1.0" encoding="UTF-8" standalone="no"?>
<!-- Created with Inkscape (http://www.inkscape.org/) -->

<svg
   width="21.667498mm"
   height="9.5365601mm"
   viewBox="0 0 21.667497 9.5365603"
   version="1.1"
   id="svg1"
   inkscape:version="1.4 (86a8ad7, 2024-10-11)"
   sodipodi:docname="Web.svg"
   xmlns:inkscape="http://www.inkscape.org/namespaces/inkscape"
   xmlns:sodipodi="http://sodipodi.sourceforge.net/DTD/sodipodi-0.dtd"
   xmlns="http://www.w3.org/2000/svg"
   xmlns:svg="http://www.w3.org/2000/svg">
  <sodipodi:namedview
     id="namedview1"
     pagecolor="#ffffff"
     bordercolor="#000000"
     borderopacity="0.25"
     inkscape:showpageshadow="2"
     inkscape:pageopacity="0.0"
     inkscape:pagecheckerboard="0"
     inkscape:deskcolor="#d1d1d1"
     inkscape:document-units="mm"
     inkscape:zoom="3.0324636"
     inkscape:cx="29.349074"
     inkscape:cy="15.663832"
     inkscape:window-width="1920"
     inkscape:window-height="1111"
     inkscape:window-x="-9"
     inkscape:window-y="-9"
     inkscape:window-maximized="1"
     inkscape:current-layer="layer1" />
  <defs
     id="defs1" />
  <g
     inkscape:label="Layer 1"
     inkscape:groupmode="layer"
     id="layer1"
     transform="translate(-77.247086,-137.18497)">
    <path
       d="m 92.287696,143.90454 q 0,0.11012 -0.01944,0.29034 h -4.178242 q 0.08745,0.70085 0.592727,1.13137 0.514994,0.42051 1.272908,0.42051 0.923101,0 1.486678,-0.64078 l 0.514993,0.62076 q -0.349807,0.4205 -0.874517,0.64077 -0.514993,0.22027 -1.156305,0.22027 -0.816216,0 -1.447811,-0.34042 -0.631595,-0.35042 -0.981402,-0.97117 -0.34009,-0.62075 -0.34009,-1.40169 0,-0.77093 0.330374,-1.39168 0.34009,-0.62075 0.923101,-0.96117 0.592727,-0.35042 1.331207,-0.35042 0.738482,0 1.311776,0.35042 0.583011,0.34042 0.903667,0.96117 0.330373,0.62075 0.330373,1.42172 z m -2.545816,-1.92233 q -0.670462,0 -1.127153,0.42051 -0.446977,0.4205 -0.52471,1.10133 h 3.303728 q -0.07774,-0.67081 -0.534426,-1.09132 -0.446975,-0.43052 -1.117439,-0.43052 z m 6.568588,-0.81098 q 0.748197,0 1.340926,0.34041 0.592727,0.34042 0.9231,0.95115 0.34009,0.61074 0.34009,1.41171 0,0.80097 -0.34009,1.42171 -0.330373,0.61074 -0.9231,0.95115 -0.592729,0.34042 -1.340926,0.34042 -0.573294,0 -1.04942,-0.23028 -0.476127,-0.23029 -0.787065,-0.67081 v 0.84101 h -0.89395 v -7.42897 h 0.932817 v 2.92353 q 0.310939,-0.42051 0.777349,-0.63076 0.466408,-0.22027 1.020269,-0.22027 z m -0.07774,4.57553 q 0.495559,0 0.884233,-0.23028 0.398391,-0.24029 0.621879,-0.66079 0.233204,-0.43053 0.233204,-0.98119 0,-0.55067 -0.233204,-0.97118 -0.223488,-0.43052 -0.621879,-0.66079 -0.388674,-0.23028 -0.884233,-0.23028 -0.485843,0 -0.884234,0.23028 -0.39839,0.23027 -0.621878,0.66079 -0.223487,0.42051 -0.223487,0.97118 0,0.55066 0.223487,0.98119 0.223488,0.4205 0.621878,0.66079 0.398391,0.23028 0.884234,0.23028 z"
       id="text10"
       style="font-size:9.86337px;font-family:Montserrat;-inkscape-font-specification:'Montserrat, Normal';font-variant-position:sub;opacity:0.7;fill:#0000c2;stroke-width:0.0324978;stroke-miterlimit:3.4"
       aria-label="eb" />
    <path
       style="font-size:16.693px;font-family:Monospace;-inkscape-font-specification:'Monospace, Normal';font-variant-position:sub;opacity:0.7;fill:#0000c2;fill-opacity:1;stroke-width:0.055;stroke-miterlimit:3.4"
       d="m 84.957817,146.72153 h -1.075916 l -1.939909,-6.77338 -1.899155,6.77338 h -1.075916 l -1.010709,-8.85185 h -0.252677 q -0.244527,0 -0.350488,-0.0897 -0.105961,-0.0978 -0.105961,-0.25268 0,-0.15487 0.105961,-0.24453 0.105961,-0.0978 0.350488,-0.0978 h 2.543074 q 0.252677,0 0.358639,0.0978 0.105961,0.0897 0.105961,0.24453 0,0.15487 -0.105961,0.25268 -0.105962,0.0897 -0.358639,0.0897 h -1.597572 l 0.904747,8.06937 1.85025,-6.64297 h 1.051463 l 1.899155,6.64297 0.888446,-8.06937 h -1.605723 q -0.244526,0 -0.350488,-0.0897 -0.105961,-0.0978 -0.105961,-0.25268 0,-0.15487 0.105961,-0.24453 0.105962,-0.0978 0.350488,-0.0978 h 2.526773 q 0.252677,0 0.358638,0.0978 0.105962,0.0897 0.105962,0.24453 0,0.15487 -0.105962,0.25268 -0.105961,0.0897 -0.358638,0.0897 H 85.91147 Z"
       id="text14"
       aria-label="&#10;W" />
  </g>
</svg>
